HIERARCHY
ROOT mixamorig:Hips
{
	OFFSET -0.000008 104.274872 1.554316
	CHANNELS 6 Xposition Yposition Zposition Xrotation Yrotation Zrotation
	JOINT mixamorig:Spine
	{
		OFFSET -0.000005 10.181595 0.131519
		CHANNELS 6 Xposition Yposition Zposition Xrotation Yrotation Zrotation
		JOINT mixamorig:Spine1
		{
			OFFSET -0.000000 9.893959 -1.470707
			CHANNELS 6 Xposition Yposition Zposition Xrotation Yrotation Zrotation
			JOINT mixamorig:Spine2
			{
				OFFSET -0.000000 9.220757 -1.370641
				CHANNELS 6 Xposition Yposition Zposition Xrotation Yrotation Zrotation
				JOINT mixamorig:Neck
				{
					OFFSET 0.000001 16.740417 -2.049036
					CHANNELS 6 Xposition Yposition Zposition Xrotation Yrotation Zrotation
					JOINT mixamorig:Head
					{
						OFFSET 0.000000 9.617874 1.685006
						CHANNELS 6 Xposition Yposition Zposition Xrotation Yrotation Zrotation
						JOINT mixamorig:HeadTop_End
						{
							OFFSET 0.000002 22.037354 7.501101
							CHANNELS 6 Xposition Yposition Zposition Xrotation Yrotation Zrotation
							End Site
							{
								OFFSET 0.000168 2310.654297 -282.823242
							}
						}
					}
				}
				JOINT mixamorig:RightShoulder
				{
					OFFSET -4.569970 11.014908 -2.160885
					CHANNELS 6 Xposition Yposition Zposition Xrotation Yrotation Zrotation
					JOINT mixamorig:RightArm
					{
						OFFSET -10.592851 -0.524811 -2.232101
						CHANNELS 6 Xposition Yposition Zposition Xrotation Yrotation Zrotation
						JOINT mixamorig:RightForeArm
						{
							OFFSET -27.841511 0.000031 -0.000004
							CHANNELS 6 Xposition Yposition Zposition Xrotation Yrotation Zrotation
							JOINT mixamorig:RightHand
							{
								OFFSET -28.328831 -0.000015 0.000015
								CHANNELS 6 Xposition Yposition Zposition Xrotation Yrotation Zrotation
								JOINT mixamorig:RightHandThumb1
								{
									OFFSET -2.464806 -1.573990 2.681852
									CHANNELS 6 Xposition Yposition Zposition Xrotation Yrotation Zrotation
									JOINT mixamorig:RightHandThumb2
									{
										OFFSET -3.215179 -1.872803 1.924282
										CHANNELS 6 Xposition Yposition Zposition Xrotation Yrotation Zrotation
										JOINT mixamorig:RightHandThumb3
										{
											OFFSET -2.654831 -1.527969 1.512609
											CHANNELS 6 Xposition Yposition Zposition Xrotation Yrotation Zrotation
											JOINT mixamorig:RightHandThumb4
											{
												OFFSET -2.018814 -1.152008 1.108052
												CHANNELS 6 Xposition Yposition Zposition Xrotation Yrotation Zrotation
												End Site
												{
													OFFSET -188.809540 -114.533607 132.431396
												}
											}
										}
									}
								}
								JOINT mixamorig:RightHandIndex1
								{
									OFFSET -9.108284 -0.517868 2.259835
									CHANNELS 6 Xposition Yposition Zposition Xrotation Yrotation Zrotation
									JOINT mixamorig:RightHandIndex2
									{
										OFFSET -3.699989 0.000000 0.001215
										CHANNELS 6 Xposition Yposition Zposition Xrotation Yrotation Zrotation
										JOINT mixamorig:RightHandIndex3
										{
											OFFSET -2.850006 0.000031 -0.000522
											CHANNELS 6 Xposition Yposition Zposition Xrotation Yrotation Zrotation
											JOINT mixamorig:RightHandIndex4
											{
												OFFSET -2.772186 -0.000015 -0.000020
												CHANNELS 6 Xposition Yposition Zposition Xrotation Yrotation Zrotation
												End Site
												{
													OFFSET -277.218445 0.000000 -0.050231
												}
											}
										}
									}
								}
								JOINT mixamorig:RightHandMiddle1
								{
									OFFSET -9.532516 -0.000031 -0.000023
									CHANNELS 6 Xposition Yposition Zposition Xrotation Yrotation Zrotation
									JOINT mixamorig:RightHandMiddle2
									{
										OFFSET -3.700005 -0.000015 0.003713
										CHANNELS 6 Xposition Yposition Zposition Xrotation Yrotation Zrotation
										JOINT mixamorig:RightHandMiddle3
										{
											OFFSET -2.949974 0.000015 -0.002054
											CHANNELS 6 Xposition Yposition Zposition Xrotation Yrotation Zrotation
											JOINT mixamorig:RightHandMiddle4
											{
												OFFSET -2.946640 0.000000 -0.000156
												CHANNELS 6 Xposition Yposition Zposition Xrotation Yrotation Zrotation
												End Site
												{
													OFFSET -294.664337 0.000000 -0.113670
												}
											}
										}
									}
								}
								JOINT mixamorig:RightHandRing1
								{
									OFFSET -9.103600 -0.043076 -1.865134
									CHANNELS 6 Xposition Yposition Zposition Xrotation Yrotation Zrotation
									JOINT mixamorig:RightHandRing2
									{
										OFFSET -3.379288 0.000000 -0.001055
										CHANNELS 6 Xposition Yposition Zposition Xrotation Yrotation Zrotation
										JOINT mixamorig:RightHandRing3
										{
											OFFSET -2.889687 -0.000015 0.000379
											CHANNELS 6 Xposition Yposition Zposition Xrotation Yrotation Zrotation
											JOINT mixamorig:RightHandRing4
											{
												OFFSET -2.638809 -0.000015 0.000941
												CHANNELS 6 Xposition Yposition Zposition Xrotation Yrotation Zrotation
												End Site
												{
													OFFSET -263.880371 0.000000 0.516020
												}
											}
										}
									}
								}
								JOINT mixamorig:RightHandPinky1
								{
									OFFSET -8.076683 -0.486710 -3.806280
									CHANNELS 6 Xposition Yposition Zposition Xrotation Yrotation Zrotation
									JOINT mixamorig:RightHandPinky2
									{
										OFFSET -3.600014 -0.000015 -0.003747
										CHANNELS 6 Xposition Yposition Zposition Xrotation Yrotation Zrotation
										JOINT mixamorig:RightHandPinky3
										{
											OFFSET -2.099983 0.000000 -0.005739
											CHANNELS 6 Xposition Yposition Zposition Xrotation Yrotation Zrotation
											JOINT mixamorig:RightHandPinky4
											{
												OFFSET -2.115768 -0.000031 -0.003680
												CHANNELS 6 Xposition Yposition Zposition Xrotation Yrotation Zrotation
												End Site
												{
													OFFSET -211.577087 0.000000 -0.350686
												}
											}
										}
									}
								}
							}
						}
					}
				}
				JOINT mixamorig:LeftShoulder
				{
					OFFSET 4.570447 11.014725 -2.160855
					CHANNELS 6 Xposition Yposition Zposition Xrotation Yrotation Zrotation
					JOINT mixamorig:LeftArm
					{
						OFFSET 10.592371 -0.524597 -2.232119
						CHANNELS 6 Xposition Yposition Zposition Xrotation Yrotation Zrotation
						JOINT mixamorig:LeftForeArm
						{
							OFFSET 27.841532 -0.000031 0.000026
							CHANNELS 6 Xposition Yposition Zposition Xrotation Yrotation Zrotation
							JOINT mixamorig:LeftHand
							{
								OFFSET 28.328846 -0.000061 0.000022
								CHANNELS 6 Xposition Yposition Zposition Xrotation Yrotation Zrotation
								JOINT mixamorig:LeftHandThumb1
								{
									OFFSET 2.466141 -1.576172 2.681732
									CHANNELS 6 Xposition Yposition Zposition Xrotation Yrotation Zrotation
									JOINT mixamorig:LeftHandThumb2
									{
										OFFSET 3.217812 -1.872070 1.916482
										CHANNELS 6 Xposition Yposition Zposition Xrotation Yrotation Zrotation
										JOINT mixamorig:LeftHandThumb3
										{
											OFFSET 2.656029 -1.528778 1.514513
											CHANNELS 6 Xposition Yposition Zposition Xrotation Yrotation Zrotation
											JOINT mixamorig:LeftHandThumb4
											{
												OFFSET 2.020889 -1.154053 1.115139
												CHANNELS 6 Xposition Yposition Zposition Xrotation Yrotation Zrotation
												End Site
												{
													OFFSET 190.885437 -115.081749 130.048782
												}
											}
										}
									}
								}
								JOINT mixamorig:LeftHandIndex1
								{
									OFFSET 9.109314 -0.518021 2.259871
									CHANNELS 6 Xposition Yposition Zposition Xrotation Yrotation Zrotation
									JOINT mixamorig:LeftHandIndex2
									{
										OFFSET 3.699989 0.000000 -0.000322
										CHANNELS 6 Xposition Yposition Zposition Xrotation Yrotation Zrotation
										JOINT mixamorig:LeftHandIndex3
										{
											OFFSET 2.850006 0.000000 0.000352
											CHANNELS 6 Xposition Yposition Zposition Xrotation Yrotation Zrotation
											JOINT mixamorig:LeftHandIndex4
											{
												OFFSET 2.774864 -0.000031 -0.000027
												CHANNELS 6 Xposition Yposition Zposition Xrotation Yrotation Zrotation
												End Site
												{
													OFFSET 277.486267 0.000000 -0.009857
												}
											}
										}
									}
								}
								JOINT mixamorig:LeftHandMiddle1
								{
									OFFSET 9.533394 0.000061 0.000044
									CHANNELS 6 Xposition Yposition Zposition Xrotation Yrotation Zrotation
									JOINT mixamorig:LeftHandMiddle2
									{
										OFFSET 3.699989 -0.000015 -0.000231
										CHANNELS 6 Xposition Yposition Zposition Xrotation Yrotation Zrotation
										JOINT mixamorig:LeftHandMiddle3
										{
											OFFSET 2.949997 -0.000015 -0.000059
											CHANNELS 6 Xposition Yposition Zposition Xrotation Yrotation Zrotation
											JOINT mixamorig:LeftHandMiddle4
											{
												OFFSET 2.952896 0.000031 0.000063
												CHANNELS 6 Xposition Yposition Zposition Xrotation Yrotation Zrotation
												End Site
												{
													OFFSET 295.289337 0.000000 0.022810
												}
											}
										}
									}
								}
								JOINT mixamorig:LeftHandRing1
								{
									OFFSET 9.104523 -0.042999 -1.865074
									CHANNELS 6 Xposition Yposition Zposition Xrotation Yrotation Zrotation
									JOINT mixamorig:LeftHandRing2
									{
										OFFSET 3.150009 -0.000031 0.000043
										CHANNELS 6 Xposition Yposition Zposition Xrotation Yrotation Zrotation
										JOINT mixamorig:LeftHandRing3
										{
											OFFSET 2.949982 -0.000015 0.000040
											CHANNELS 6 Xposition Yposition Zposition Xrotation Yrotation Zrotation
											JOINT mixamorig:LeftHandRing4
											{
												OFFSET 2.644348 0.000000 0.000057
												CHANNELS 6 Xposition Yposition Zposition Xrotation Yrotation Zrotation
												End Site
												{
													OFFSET 264.434631 0.000000 0.012105
												}
											}
										}
									}
								}
								JOINT mixamorig:LeftHandPinky1
								{
									OFFSET 8.077789 -0.486847 -3.806259
									CHANNELS 6 Xposition Yposition Zposition Xrotation Yrotation Zrotation
									JOINT mixamorig:LeftHandPinky2
									{
										OFFSET 3.599953 0.000031 0.014727
										CHANNELS 6 Xposition Yposition Zposition Xrotation Yrotation Zrotation
										JOINT mixamorig:LeftHandPinky3
										{
											OFFSET 2.100021 0.000015 0.007705
											CHANNELS 6 Xposition Yposition Zposition Xrotation Yrotation Zrotation
											JOINT mixamorig:LeftHandPinky4
											{
												OFFSET 2.125504 0.000031 0.007517
												CHANNELS 6 Xposition Yposition Zposition Xrotation Yrotation Zrotation
												End Site
												{
													OFFSET 212.550781 0.000000 0.625752
												}
											}
										}
									}
								}
							}
						}
					}
				}
			}
		}
	}
	JOINT mixamorig:RightUpLeg
	{
		OFFSET -8.207787 -6.751648 -1.599560
		CHANNELS 6 Xposition Yposition Zposition Xrotation Yrotation Zrotation
		JOINT mixamorig:RightLeg
		{
			OFFSET -0.000002 -44.370117 0.345942
			CHANNELS 6 Xposition Yposition Zposition Xrotation Yrotation Zrotation
			JOINT mixamorig:RightFoot
			{
				OFFSET 0.000003 -44.423679 -3.043532
				CHANNELS 6 Xposition Yposition Zposition Xrotation Yrotation Zrotation
				JOINT mixamorig:RightToeBase
				{
					OFFSET -0.000002 -8.728671 10.710558
					CHANNELS 6 Xposition Yposition Zposition Xrotation Yrotation Zrotation
					JOINT mixamorig:RightToe_End
					{
						OFFSET -0.000001 -0.000679 9.278119
						CHANNELS 6 Xposition Yposition Zposition Xrotation Yrotation Zrotation
						End Site
						{
							OFFSET 0.000000 -0.067690 927.812134
						}
					}
				}
			}
		}
	}
	JOINT mixamorig:LeftUpLeg
	{
		OFFSET 8.207793 -6.751686 -1.599556
		CHANNELS 6 Xposition Yposition Zposition Xrotation Yrotation Zrotation
		JOINT mixamorig:LeftLeg
		{
			OFFSET -0.000004 -44.370014 0.346954
			CHANNELS 6 Xposition Yposition Zposition Xrotation Yrotation Zrotation
			JOINT mixamorig:LeftFoot
			{
				OFFSET -0.000001 -44.423672 -3.044401
				CHANNELS 6 Xposition Yposition Zposition Xrotation Yrotation Zrotation
				JOINT mixamorig:LeftToeBase
				{
					OFFSET -0.000002 -8.728669 10.710558
					CHANNELS 6 Xposition Yposition Zposition Xrotation Yrotation Zrotation
					JOINT mixamorig:LeftToe_End
					{
						OFFSET -0.000003 -0.000679 9.278133
						CHANNELS 6 Xposition Yposition Zposition Xrotation Yrotation Zrotation
						End Site
						{
							OFFSET 0.000000 -0.068021 927.813477
						}
					}
				}
			}
		}
	}
}
MOTION
Frames: 3
Frame Time: 0.033333
0.000006 104.270477 1.554256 0.000010 0.000003 -0.000113 -0.000005 10.181587 0.131522 0.000001 -0.000003 0.000084 -0.000000 9.893967 -1.470711 0.000001 0.000000 -0.000000 -0.000000 9.220802 -1.370642 0.000000 -0.000000 -0.000000 0.000001 16.740433 -2.049030 0.000000 -0.000000 -0.000000 0.000000 9.617859 1.685014 0.000000 0.000000 0.000000 0.000002 22.037384 7.501101 0.000000 -0.000000 0.000000 -4.569968 11.014880 -2.160881 0.000008 0.000001 -0.000038 -10.592853 -0.524800 -2.231830 73.247618 43.565767 -33.087642 -27.841515 0.000019 0.000562 -41.944933 103.663448 51.993108 -28.328825 0.000009 0.000025 -0.000320 -0.000042 0.000006 -2.464418 -1.573741 2.682333 -49.913981 -167.185832 -15.356275 -3.215263 -1.872530 1.924624 148.876704 32.412707 16.546015 -2.654957 -1.527866 1.513065 145.795538 28.119529 -25.672989 -2.018828 -1.152012 1.108075 -0.000002 -0.000004 0.000009 -9.108369 -0.517543 2.260143 102.859555 13.913582 -17.456109 -3.700050 0.000325 0.001525 99.020381 11.208349 -13.085691 -2.850065 0.000359 -0.000260 96.797632 9.765943 -10.991032 -2.772170 -0.000015 -0.000016 0.000000 -0.000001 -0.000000 -9.532574 0.000277 0.000239 91.350331 15.562569 -16.073986 -3.700064 0.000335 0.003961 91.076017 11.882476 -12.009903 -2.950056 0.000336 -0.001819 92.108120 11.515727 -11.937000 -2.946641 0.000003 -0.000152 -0.000002 -0.000001 -0.000002 -9.103699 -0.042769 -1.864880 86.064987 19.690471 -18.362878 -3.379340 0.000289 -0.000822 88.938352 12.251662 -12.045953 -2.889763 0.000336 0.000645 94.813770 8.597824 -9.399711 -2.638809 -0.000020 0.000939 -0.000004 -0.000000 0.000000 -8.076752 -0.486414 -3.806056 72.603675 20.666703 -15.140955 -3.600055 0.000241 -0.003577 73.460959 12.696494 -9.208698 -2.100013 0.000296 -0.005532 78.010568 7.554252 -5.938327 -2.115746 -0.000055 -0.003680 -0.000002 -0.000001 -0.000003 4.570446 11.014691 -2.160851 -0.000018 0.000010 -0.000021 10.592541 -0.524524 -2.232407 77.383789 -62.962945 52.251190 27.841722 -0.000037 -0.000123 291.028514 -79.996371 300.085864 28.328829 -0.000016 0.000022 0.000018 -0.000087 -0.000002 2.466170 -1.576159 2.681826 168.631538 209.509455 -166.416398 3.217828 -1.871957 1.916605 335.693334 -21.081019 -349.021301 2.656051 -1.528737 1.514642 332.866783 -20.612703 10.803309 2.020898 -1.154073 1.115152 0.000004 0.000003 0.000006 9.109294 -0.517931 2.260085 -63.745008 -19.645277 -12.285204 3.699972 0.000067 -0.000102 118.651464 -163.048008 169.891899 2.850001 0.000071 0.000558 -57.818207 -13.562532 -7.513691 2.774890 -0.000034 -0.000018 0.000002 0.000002 0.000002 9.533388 0.000153 0.000273 -69.471787 -13.787431 -9.580063 3.699986 0.000079 -0.000019 -64.609088 -10.396559 -6.583322 2.949987 0.000054 0.000151 -63.122218 -12.329139 -7.592763 2.952871 -0.000015 0.000062 -0.000003 -0.000001 -0.000002 9.104510 -0.042918 -1.864845 -71.346858 -12.701991 -9.137366 3.149988 0.000121 0.000259 -65.706099 -9.604306 -6.211419 2.949969 0.000097 0.000264 -61.489297 -10.634797 -6.338122 2.644318 0.000045 0.000053 -0.000004 -0.000001 -0.000000 8.077742 -0.486733 -3.806007 283.860749 -15.619570 347.482869 3.599931 0.000137 0.014961 -73.904976 -10.308702 -8.017478 2.099978 0.000134 0.007943 -72.097284 -9.421788 -7.105052 2.125502 -0.000002 0.007510 0.000002 0.000000 0.000000 -8.207786 -6.751667 -1.599560 -0.077001 -0.000003 0.000080 -0.000002 -44.370110 0.345938 0.153719 -0.000000 -0.000000 0.000000 -44.423679 -3.043532 -0.076700 0.000000 -0.000002 -0.000006 -8.728667 10.710559 -0.000009 -0.000000 -0.000000 -0.000001 -0.000679 9.278123 0.000000 -0.000000 -0.000000 8.207792 -6.751710 -1.599556 -0.074518 -0.000003 0.000081 -0.000002 -44.370014 0.346960 0.148822 0.000002 0.000000 -0.000001 -44.423664 -3.044403 -0.074314 0.000000 -0.000002 -0.000004 -8.728671 10.710558 0.000007 -0.000000 -0.000000 0.000000 -0.000680 9.278137 -0.000000 0.000000 -0.000001 
0.000006 104.270477 1.554256 0.000010 0.000003 -0.000113 -0.000005 10.181587 0.131522 0.000001 -0.000003 0.000084 -0.000000 9.893967 -1.470711 0.000001 0.000000 -0.000000 -0.000000 9.220802 -1.370642 0.000000 -0.000000 -0.000000 0.000001 16.740433 -2.049030 0.000000 -0.000000 -0.000000 0.000000 9.617859 1.685014 0.000000 0.000000 0.000000 0.000002 22.037384 7.501101 0.000000 -0.000000 0.000000 -4.569968 11.014880 -2.160881 0.000008 0.000001 -0.000038 -10.592857 -0.524793 -2.231835 73.165574 42.444394 -32.155154 -27.841511 0.000009 0.000555 -42.097055 103.631674 52.146558 -28.328836 0.000005 0.000023 -0.000322 -0.000047 0.000007 -2.464428 -1.573732 2.682317 -50.261573 -167.671705 -16.362458 -3.215268 -1.872547 1.924610 148.954241 32.359800 15.975063 -2.654949 -1.527834 1.513048 145.518533 28.100464 -26.276547 -2.018811 -1.151997 1.108070 -0.000001 -0.000005 -0.000001 -9.108377 -0.517543 2.260134 102.632697 14.079146 -17.591623 -3.700061 0.000322 0.001493 98.820331 11.220601 -13.054170 -2.850082 0.000364 -0.000264 96.792489 9.748837 -10.970810 -2.772141 -0.000014 -0.000018 0.000001 0.000002 0.000000 -9.532610 0.000269 0.000244 91.288934 15.898983 -16.401243 -3.700055 0.000316 0.003957 91.002647 11.871056 -11.983044 -2.950075 0.000327 -0.001807 92.137626 11.466710 -11.892273 -2.946630 0.000001 -0.000152 -0.000002 -0.000001 -0.000001 -9.103710 -0.042770 -1.864862 86.048041 20.153916 -18.791565 -3.379335 0.000301 -0.000818 88.929015 12.479345 -12.267617 -2.889761 0.000356 0.000629 94.919337 8.684607 -9.511569 -2.638797 0.000014 0.000935 -0.000001 0.000004 0.000001 -8.076775 -0.486409 -3.806072 72.414499 21.022808 -15.353514 -3.600047 0.000245 -0.003575 73.681397 13.168248 -9.599375 -2.100031 0.000297 -0.005529 78.502451 7.939855 -6.305127 -2.115776 -0.000052 -0.003683 -0.000002 0.000001 -0.000003 4.570446 11.014691 -2.160851 -0.000018 0.000010 -0.000021 10.592535 -0.524516 -2.232409 77.547407 -62.015297 51.542301 27.841732 -0.000049 -0.000121 291.859939 -79.988810 300.862347 28.328833 -0.000033 0.000030 0.000019 -0.000090 -0.000000 2.466168 -1.576149 2.681834 166.504726 207.432053 -167.192198 3.217831 -1.871947 1.916607 334.269103 -20.391620 -349.045315 2.656060 -1.528743 1.514640 333.261103 -21.566481 10.933068 2.020883 -1.154068 1.115147 0.000002 -0.000000 0.000003 9.109282 -0.517923 2.260089 -65.108847 -20.154853 -12.942346 3.699966 0.000081 -0.000105 115.149080 -160.861269 167.769226 2.849981 0.000076 0.000554 -59.414600 -15.240799 -8.730069 2.774884 -0.000046 -0.000033 -0.000000 0.000001 0.000001 9.533381 0.000156 0.000273 -70.337493 -13.139272 -9.274750 3.699984 0.000083 -0.000012 -67.396810 -10.235376 -6.834651 2.949991 0.000077 0.000164 -65.409409 -13.539745 -8.718906 2.952863 -0.000012 0.000071 -0.000000 0.000001 0.000001 9.104508 -0.042919 -1.864836 -72.022699 -11.956280 -8.706144 3.149989 0.000109 0.000256 -65.507832 -8.287550 -5.337807 2.949969 0.000081 0.000253 -62.079350 -10.811895 -6.519653 2.644331 0.000017 0.000067 0.000000 0.000001 -0.000002 8.077755 -0.486732 -3.806026 284.713157 -12.930840 349.738744 3.599940 0.000134 0.014975 -73.744999 -7.441886 -5.856484 2.099977 0.000122 0.007936 -74.119881 -8.679581 -6.814475 2.125502 -0.000020 0.007513 0.000001 -0.000000 0.000001 -8.207786 -6.751667 -1.599560 -0.077001 -0.000003 0.000080 -0.000002 -44.370110 0.345938 0.153719 -0.000000 -0.000000 0.000000 -44.423679 -3.043532 -0.076700 0.000000 -0.000002 -0.000006 -8.728667 10.710559 -0.000009 -0.000000 -0.000000 -0.000001 -0.000679 9.278123 0.000000 -0.000000 -0.000000 8.207792 -6.751710 -1.599556 -0.074518 -0.000003 0.000081 -0.000002 -44.370014 0.346960 0.148822 0.000002 0.000000 -0.000001 -44.423664 -3.044403 -0.074314 0.000000 -0.000002 -0.000004 -8.728671 10.710558 0.000007 -0.000000 -0.000000 0.000000 -0.000680 9.278137 -0.000000 0.000000 -0.000001 
0.000006 104.270477 1.554256 0.000010 0.000003 -0.000113 -0.000005 10.181587 0.131522 0.000001 -0.000003 0.000084 -0.000000 9.893967 -1.470711 0.000001 0.000000 -0.000000 -0.000000 9.220802 -1.370642 0.000000 -0.000000 -0.000000 0.000001 16.740433 -2.049030 0.000000 -0.000000 -0.000000 0.000000 9.617859 1.685014 0.000000 0.000000 0.000000 0.000002 22.037384 7.501101 0.000000 -0.000000 0.000000 -4.569968 11.014880 -2.160881 0.000008 0.000001 -0.000038 -10.592859 -0.524800 -2.231842 73.063722 41.869299 -31.646104 -27.841526 -0.000002 0.000551 -42.490942 103.532465 52.529148 -28.328833 -0.000004 0.000030 -0.000320 -0.000043 0.000009 -2.464418 -1.573750 2.682303 -50.065311 -167.147365 -15.778099 -3.215268 -1.872539 1.924633 148.840477 32.388050 16.411008 -2.654945 -1.527841 1.513049 145.400575 28.130390 -26.061005 -2.018827 -1.152001 1.108073 -0.000002 -0.000002 0.000005 -9.108372 -0.517545 2.260128 102.507984 13.978634 -17.428758 -3.700051 0.000334 0.001507 98.925140 11.250315 -13.112768 -2.850053 0.000372 -0.000254 96.986316 9.831969 -11.101789 -2.772163 -0.000015 -0.000018 0.000001 0.000001 -0.000000 -9.532596 0.000252 0.000222 91.777429 15.636907 -16.269415 -3.700067 0.000323 0.003963 91.388512 11.728150 -11.917252 -2.950063 0.000346 -0.001813 92.332690 11.437781 -11.902467 -2.946631 0.000003 -0.000152 -0.000000 0.000001 -0.000001 -9.103703 -0.042775 -1.864892 86.639488 19.550057 -18.412320 -3.379343 0.000313 -0.000814 89.069546 11.916787 -11.743712 -2.889765 0.000341 0.000645 94.787350 8.481152 -9.268593 -2.638799 -0.000004 0.000941 -0.000001 0.000002 0.000002 -8.076757 -0.486423 -3.806074 72.591551 20.752714 -15.201658 -3.600052 0.000238 -0.003574 74.024607 12.546321 -9.190018 -2.100030 0.000294 -0.005559 78.672175 7.488232 -5.954671 -2.115777 -0.000052 -0.003686 0.000001 -0.000000 0.000001 4.570446 11.014691 -2.160851 -0.000018 0.000010 -0.000021 10.592539 -0.524513 -2.232400 77.774025 -62.132899 51.828742 27.841726 -0.000047 -0.000124 290.539937 -80.165801 299.483031 28.328825 -0.000031 0.000025 0.000018 -0.000089 -0.000000 2.466168 -1.576144 2.681841 164.764421 205.802602 -167.721360 3.217831 -1.871956 1.916610 333.183321 -19.227959 -349.168177 2.656046 -1.528736 1.514642 333.121003 -21.348504 10.906523 2.020890 -1.154072 1.115133 0.000002 0.000001 0.000006 9.109273 -0.517917 2.260099 -68.650921 -20.144921 -13.827026 3.699947 0.000071 -0.000095 110.196121 -159.655494 165.723981 2.849987 0.000118 0.000567 -67.384160 -16.304491 -10.910869 2.774887 -0.000036 -0.000026 -0.000003 -0.000002 0.000000 9.533384 0.000162 0.000288 -73.796690 -12.886859 -9.688951 3.699989 0.000117 0.000000 -71.871786 -10.744399 -7.797477 2.949986 0.000083 0.000162 -71.627729 -14.428679 -10.439283 2.952866 -0.000013 0.000076 -0.000001 0.000000 -0.000000 9.104509 -0.042885 -1.864831 -75.913871 -11.872949 -9.275747 3.149990 0.000133 0.000259 -70.833221 -7.802380 -5.553437 2.949957 0.000110 0.000281 -68.025747 -10.935833 -7.392880 2.644320 0.000029 0.000062 0.000002 -0.000000 0.000002 8.077751 -0.486721 -3.806017 278.450611 -13.323768 348.195831 3.599940 0.000152 0.014980 -79.216964 -7.807636 -6.761565 2.099976 0.000152 0.007960 -79.142324 -9.008575 -7.726686 2.125513 -0.000013 0.007522 0.000000 -0.000000 -0.000001 -8.207786 -6.751667 -1.599560 -0.077001 -0.000003 0.000080 -0.000002 -44.370110 0.345938 0.153719 -0.000000 -0.000000 0.000000 -44.423679 -3.043532 -0.076700 0.000000 -0.000002 -0.000006 -8.728667 10.710559 -0.000009 -0.000000 -0.000000 -0.000001 -0.000679 9.278123 0.000000 -0.000000 -0.000000 8.207792 -6.751710 -1.599556 -0.074518 -0.000003 0.000081 -0.000002 -44.370014 0.346960 0.148822 0.000002 0.000000 -0.000001 -44.423664 -3.044403 -0.074314 0.000000 -0.000002 -0.000004 -8.728671 10.710558 0.000007 -0.000000 -0.000000 0.000000 -0.000680 9.278137 -0.000000 0.000000 -0.000001 
